<svg xmlns="http://www.w3.org/2000/svg" width="331" height="330" fill="none" viewBox="0 0 331 330">
  <path fill="#FBC9BC" d="M330.095 164.926V110l-55.01 38.456v16.47h55.01Z"/>
  <path fill="#D1D3D4" d="M275.085 219.84v-54.914l55.01 38.456v16.458h-55.01Z"/>
  <path fill="#FCBC86" d="M220.063 164.926v54.914l55.023-38.456v-16.458h-55.023Z"/>
  <path fill="#84C98B" d="M275.086 110v54.926l-55.023-38.468V110h55.023Z"/>
  <path fill="#EBEA70" d="M220.063 164.926V110l-55.009 38.456v16.47h55.009Z"/>
  <path fill="#D0AEFC" d="M165.054 219.84v-54.914l55.009 38.456v16.458h-55.009Z"/>
  <path fill="#D1D3D4" d="M110.032 164.926v54.914l55.022-38.456v-16.458h-55.022Z"/>
  <path fill="#FCBC86" d="M165.054 110v54.926l-55.022-38.468V110h55.022Z"/>
  <path fill="#D0AEFC" d="M110.032 164.926V110l-55.01 38.456v16.47h55.01Z"/>
  <path fill="#84C98B" d="M55.022 219.84v-54.914l55.01 38.456v16.458h-55.01Z"/>
  <path fill="#FBC9BC" d="M0 164.926v54.914l55.022-38.456v-16.458H0Z"/>
  <path fill="#EBEA70" d="M55.022 110v54.926L0 126.458V110h55.022Z"/>
  <path stroke="#C1C1C1" stroke-width=".4" d="M275.285 38.56 329.895.384v54.342h-54.61V38.56Zm0 71.08V55.31l54.61 38.176v16.154h-54.61Zm-.399-38.36-54.623 38.176v-54.33h54.623V71.28Zm0-71.08v54.342l-54.623-38.188V.2h54.623ZM165.254 38.56 219.863.384v54.342h-54.609V38.56Zm0 71.08V55.31l54.609 38.176v16.154h-54.609Zm-.4-38.36-54.622 38.176v-54.33h54.622V71.28Zm0-71.08v54.342l-54.622-38.188V.2h54.622ZM55.222 38.56 109.832.384v54.342h-54.61V38.56Zm0 71.08V55.31l54.61 38.176v16.154h-54.61Zm-.4-38.36L.2 109.456v-54.33h54.622V71.28Zm0-71.08v54.342L.2 16.354V.2h54.622Z"/>
  <path fill="#FBC9BC" d="M330.095 274.532v-54.926l-55.01 38.456v16.47h55.01Z"/>
  <path fill="#D1D3D4" d="M275.085 329.446v-54.913l55.01 38.456v16.457h-55.01Z"/>
  <path fill="#FCBC86" d="M220.063 274.533v54.913l55.023-38.455v-16.458h-55.023Z"/>
  <path fill="#84C98B" d="M275.086 219.606v54.926l-55.023-38.468v-16.458h55.023Z"/>
  <path fill="#EBEA70" d="M220.063 274.532v-54.926l-55.009 38.456v16.47h55.009Z"/>
  <path fill="#D0AEFC" d="M165.054 329.446v-54.913l55.009 38.456v16.457h-55.009Z"/>
  <path fill="#D1D3D4" d="M110.032 274.533v54.913l55.022-38.455v-16.458h-55.022Z"/>
  <path fill="#FCBC86" d="M165.054 219.606v54.926l-55.022-38.468v-16.458h55.022Z"/>
  <path fill="#D0AEFC" d="M110.032 274.532v-54.926l-55.01 38.456v16.47h55.01Z"/>
  <path fill="#84C98B" d="M55.022 329.446v-54.913l55.01 38.456v16.457h-55.01Z"/>
  <path fill="#FBC9BC" d="M0 274.533v54.913l55.022-38.455v-16.458H0Z"/>
  <path fill="#EBEA70" d="M55.022 219.606v54.926L0 236.064v-16.458h55.022Z"/>
</svg>
